# xmcd
#
# Track frame offsets: 
#        150
#        15152
#        32278
#        47756
#        67782
#        85682
#        104999
#        123108
#        138008
#        154320
#
# Disc length: 2278 seconds
#
# Revision: 0
# Processed by: cddbd v1.5.1PL2 Copyright (c) Steve Scherf et al.
# Submitted via: ExactAudioCopy v0.95a3
#
DISCID=6d08e40a
DTITLE=郑怡 - 苏醒
DYEAR=1985
DGENRE=Country
TTITLE0=早起的太阳
TTITLE1=放不开的洒脱
TTITLE2=苏醒
TTITLE3=衰老的模式
TTITLE4=离别的时候
TTITLE5=雪花
TTITLE6=爱的期许
TTITLE7=生命的至爱
TTITLE8=小小孩
TTITLE9=最后的开始
EXTD=
EXTT0=
EXTT1=
EXTT2=
EXTT3=
EXTT4=
EXTT5=
EXTT6=
EXTT7=
EXTT8=
EXTT9=
PLAYORDER=
